Coordinates
version=1
nRows=38
nColumns=12
inDegrees=yes

Units are S.I. units (second, meters, Newtons, ...)
Angles are in degrees

endheader
time	SC_y	SC_z	SC_x	AC_y	AC_z	AC_x	GH_y	GH_z	GH_yy	EL_x	PS_y
       0.0              -25.49           19.0          79.72          56.95          3.345          12.64          158.4          70.21          54.65          41.09          135.6
   0.03458               -25.5           19.0          79.72          56.94          3.342          12.65          158.4           70.2          54.66          41.09          135.5
   0.06917               -25.5           19.0          79.71          56.94           3.34          12.65          158.3          70.19          54.66          41.09          135.5
    0.1038               -25.5           19.0          79.71          56.93          3.337          12.65          158.3          70.17          54.67          41.09          135.5
    0.1383              -25.51           19.0           79.7          56.93          3.334          12.65          158.2          70.16          54.67          41.08          135.5
    0.1729              -25.51          19.01           79.7          56.93          3.331          12.65          158.1          70.14          54.68          41.08          135.5
    0.2075              -25.52          19.01          79.69          56.92          3.327          12.65          158.1          70.13          54.69          41.08          135.4
    0.2421              -25.52          19.01          79.69          56.92          3.324          12.65          158.0          70.11           54.7          41.08          135.4
    0.2767              -25.53          19.01          79.68          56.91           3.32          12.65          157.9          70.09          54.71          41.08          135.4
    0.3113              -25.54          19.01          79.67           56.9          3.316          12.65          157.9          70.07          54.72          41.08          135.4
    0.3458              -25.54          19.01          79.66           56.9          3.311          12.65          157.8          70.05          54.73          41.08          135.3
    0.3804              -25.55          19.01          79.65          56.89          3.306          12.65          157.7          70.02          54.74          41.08          135.3
     0.415              -25.56          19.01          79.65          56.88          3.301          12.65          157.6           70.0          54.75          41.07          135.3
    0.4496              -25.57          19.01          79.63          56.87          3.295          12.65          157.5          69.97          54.76          41.07          135.2
    0.4842              -25.57          19.01          79.62          56.86          3.289          12.65          157.4          69.94          54.77          41.07          135.2
    0.5188              -25.58          19.01          79.61          56.86          3.283          12.65          157.2          69.91          54.79          41.07          135.1
    0.5534              -25.59          19.01           79.6          56.84          3.275          12.65          157.1          69.87           54.8          41.07          135.1
    0.5879              -25.61          19.01          79.59          56.83          3.267          12.66          156.9          69.84          54.82          41.07          135.0
    0.6225              -25.62          19.01          79.57          56.82          3.259          12.66          156.8           69.8          54.84          41.06          135.0
    0.6571              -25.63          19.01          79.55          56.81          3.249          12.66          156.6          69.75          54.86          41.06          134.9
    0.6917              -25.65          19.01          79.53          56.79          3.239          12.66          156.4           69.7          54.89          41.06          134.9
    0.7263              -25.66          19.02          79.51          56.78          3.228          12.66          156.2          69.65          54.91          41.05          134.8
    0.7609              -25.68          19.02          79.49          56.76          3.215          12.66          156.0          69.58          54.94          41.05          134.7
    0.7954               -25.7          19.02          79.47          56.74          3.201          12.66          155.7          69.52          54.97          41.05          134.6
      0.83              -25.73          19.02          79.44          56.71          3.186          12.67          155.4          69.44           55.0          41.04          134.5
    0.8646              -25.75          19.02          79.41          56.69          3.169          12.67          155.1          69.36          55.04          41.04          134.4
    0.8992              -25.78          19.02          79.37          56.66          3.149          12.67          154.7          69.27          55.08          41.03          134.3
    0.9338              -25.81          19.03          79.33          56.63          3.128          12.67          154.3          69.16          55.13          41.02          134.1
    0.9684              -25.85          19.03          79.29          56.59          3.103          12.68          153.8          69.04          55.19          41.02          134.0
     1.003              -25.89          19.03          79.24          56.55          3.075          12.68          153.3          68.91          55.25          41.01          133.8
     1.038              -25.93          19.04          79.18          56.51          3.044          12.69          152.7          68.75          55.32           41.0          133.6
     1.072              -25.99          19.04          79.12          56.45          3.007          12.69          152.0          68.58           55.4          40.99          133.3
     1.107              -26.05          19.04          79.04          56.39          2.965           12.7          151.2          68.38           55.5          40.98          133.1
     1.141              -26.12          19.05          78.96          56.32          2.916           12.7          150.3          68.14           55.6          40.96          132.7
     1.176               -26.2          19.06          78.85          56.24          2.859          12.71          149.2          67.86          55.73          40.95          132.4
      1.21               -26.3          19.06          78.73          56.14          2.791          12.72          147.9          67.54          55.88          40.93          131.9
     1.245              -26.42          19.07          78.59          56.02          2.711          12.73          146.4          67.15          56.06           40.9          131.4
      1.28              -26.56          19.08          78.42          55.88          2.615          12.74          144.6          66.68          56.27          40.88          130.7
